<svg xmlns:xlink="http://www.w3.org/1999/xlink" xmlns="http://www.w3.org/2000/svg" viewBox="0 0 141.8 52" width="146"  height="54" ><path fill-rule="evenodd" d="M12.5 37.6c0 .2-.2.4-.7.4-2.6 0-5.6-.1-5.8-.1s-3.1.1-4.6.1c-.5 0-.7-.1-.7-.4 0-.1.1-.3.4-.3.5 0 1-.1 1.4-.2.9-.2 1.2-1.3 1.4-2.7.2-2.1.2-5.9.2-10.6v-8.7C4 7.5 4 6.2 3.9 4.5c0-1.6-.4-2.4-1.9-2.7-.4 0-.7-.1-1.1-.1H.4c-.2 0-.4 0-.4-.3S.2 1 .7 1c2.2 0 5 .1 5.3.1 1 0 3.8-.1 5.9-.1 5.9 0 8 2 8.7 2.8C22.1 5.3 23 7.3 23 9.6c0 7-4.9 11.7-11.5 11.7h-.2c-.3 0-.6 0-.8-.1-.2 0-.5-.1-.5-.3 0-.4.3-.4 1.3-.4 4.5 0 8.1-3.5 8.1-8 0-1.6-.2-4.9-2.6-7.5-1.5-1.5-3.5-2.5-5.7-2.5h-.9c-.6 0-1.3.1-1.8.3-.4 0-.5.3-.5.8v20.1c0 4.7 0 8.6.2 10.6.1 1.4.4 2.5 1.7 2.7.7.1 1.4.2 2.2.2.4.1.5.2.5.4zm47.5-1c0 .3-.4.4-1 .4-.7 0-4.3 0-7.6-.1-.9 0-1.5-.1-1.5-.3 0-.2 0-.2.3-.3.3-.1.6-.5.3-1.3L46 23.2c-.1-.2-.2-.3-.4-.3H35.2c-.2 0-.4.2-.5.4l-2.9 8.4c-.4 1-.7 2.1-.7 3.3 0 1 1 1.4 1.8 1.4h.5c.3 0 .5 0 .5.3s-.3.4-.7.4c-1.2 0-3.3-.1-3.8-.1s-3.2.1-5.5.1c-.6 0-.9-.2-.9-.4s.1-.3.4-.3c.3 0 1 0 1.4-.1 2.2-.3 3.2-2.1 4.1-4.5L39.9 2c.6-1.7.8-2 1.1-2 .3 0 .5.2 1.1 1.7.7 1.8 8.4 21.7 11.3 29 1.7 4.3 3.2 5 4.1 5.3.6.2 1.2.3 1.9.3h.1c.3 0 .5 0 .5.3zM45.2 20.8l-4.6-13c-.2-.7-.5-.7-.7 0l-4.3 13c-.1.2 0 .3.1.3H45c.2 0 .2-.2.2-.3zM97 36.6c0 .3-.3.4-1.1.4h-3.4c-2.7 0-3.9-.2-5.1-.9-2-1.1-3.7-3.5-6.4-7.2-2-2.7-4.2-6-5.2-7.2-.1-.2-.4-.3-.6-.3l-5.9-.1c-.2 0-.3.2-.3.4v1.2c0 4.7 0 8.6.2 10.6.1 1.4.4 2.5 1.7 2.7.7.1 1.5.2 2.3.2.3 0 .4 0 .4.3s-.3.3-.8.3c-2.6 0-5.6-.1-5.9-.1 0 0-3.1.1-4.5.1-.5 0-.8-.1-.8-.4 0-.1.1-.3.4-.3.5 0 1-.1 1.4-.2.9-.2 1.2-1.3 1.4-2.7.2-2.1.2-5.9.2-10.6v-8.7c0-7.6 0-8.9-.1-10.6-.1-1.6-.4-2.4-2-2.8-.4-.1-.9-.1-1.3-.1h-.4c-.2 0-.4 0-.4-.3s.4-.3 1-.3c2.1 0 5.1.1 5.4.1.5 0 4.1-.1 5.6-.1 3 0 6.2.3 8.8 2.2 1.9 1.5 3.2 3.9 3.3 6.7 0 3.6-1.5 7.2-5.8 11.3 3.9 5.1 7.1 9.5 9.9 12.5 2.6 2.8 4.6 3.3 5.7 3.5.6.1 1.2.2 1.9.2h.1c.1-.1.3.1.3.2zM80.8 11.3c0-6.1-3.1-9.8-8.2-9.8h-.3c-1 0-2 .1-2.9.3-.3.1-.4.3-.4.6v16c0 .2.1.5.3.6.7.4 2.9.8 5 .8h.3c1.2 0 2.3-.4 3.2-.9 1.7-1.2 3-3.8 3-7.6zm50.6 25c-1.1 0-2.1-.3-3-.7-2.2-1-3-1.7-7-5.6-1.9-1.9-11.8-12.4-13-13.8 1-1.2 9.2-9.5 10.4-10.7 2.1-2.1 3.2-3.3 5.1-4.2.8-.4 1.7-.6 2.7-.7.4 0 .5-.1.5-.3s-.2-.3-.7-.3c-1.2 0-4.3.1-4.5.1-1.1 0-2.6-.1-3.5-.1-.3 0-.6.1-.6.3s.2.3.4.4c.4.1.6.5.6.9v.1c0 .8-1.2 2.1-2.6 3.5-1.7 1.9-10.3 10.9-11.1 11.8h-.2v-2.9c0-7.6 0-9 .1-10.6.1-1.7.5-2.5 1.8-2.8.3-.1.7-.1 1.1-.2.2 0 .4-.1.4-.3 0-.2-.2-.4-.8-.4-1.4 0-4.2.1-4.6.1-.3 0-3.1-.1-5.2-.1-.5.2-.7.3-.7.6s.2.3.4.3c.6 0 1.1.1 1.6.2 1.5.3 1.9 1.1 1.9 2.8.1 1.6.1 2.9.1 10.6v8.6c0 4.7 0 8.6-.2 10.6-.2 1.4-.4 2.5-1.4 2.7-.4.1-.9.2-1.4.2-.3 0-.4.1-.4.3 0 .3.2.4.8.4 1.4 0 4.2-.1 4.5-.1s3.1.1 5.4.1c.5 0 .8-.1.8-.4s-.1-.3-.4-.3c-.7 0-1.3-.1-1.9-.2-1.3-.2-1.6-1.3-1.7-2.7-.2-2.1-.2-5.9-.2-10.6V18h.2c2.3 2.9 12.3 14.1 14.4 15.9 2 1.7 3.2 2.8 5.7 3 1 .1 1.9.1 3.3.1h2.4c.8 0 1-.1 1-.4.1-.3-.2-.3-.5-.3zM8 42H6.9v6.4c0 .5-.1 1.1-.4 1.5-.5.6-1.2 1-2 1s-1.6-.4-2-1c-.2-.4-.3-1-.3-1.5V42H1v6.6c0 .8.2 1.5.7 2 .6.9 1.7 1.4 2.8 1.4s2.2-.5 2.8-1.3c.4-.6.7-1.3.7-2V42zm16.9 6.5L17 41v9.6h1.1v-7.1L26 51v-9.6h-1.1v7.1zM35 51h1v-9h-1v9zm13-1.8L45.2 42H44l4 10 4-10h-1.2L48 49.2zM60 51h5v-.9h-3.9v-3.5h3.8v-.9h-3.8V43H65v-1h-5v9zm15.7-4l3.3 4h-1.4l-3.1-3.9h-.3V51H73v-9h2.1c.8 0 1.5.2 2.1.5.7.4 1.1 1.2 1.1 2v.2c0 1.2-1.1 2.2-2.6 2.3zm-.8-.8c1.5 0 2.3-.6 2.3-1.7 0-1-.8-1.5-2.3-1.5h-.7v3.2h.7zm15.9-.9l-.6-.3-.3-.1c-.3-.1-.5-.3-.8-.4-.3-.2-.6-.6-.6-1 0-.8.7-1.5 1.5-1.5h.2c.7 0 1.3.4 1.6 1l.8-.5c-.5-.9-1.4-1.5-2.4-1.5h-.1c-1.4 0-2.5 1.1-2.5 2.5 0 1.1.6 1.8 1.9 2.4l.6.3.3.1c.3.1.6.3.9.5.5.3.8.8.8 1.3 0 1.1-.8 1.9-1.9 1.9h-.1c-1 0-1.7-.6-1.9-1.8l-1 .3c.2 1.4 1.4 2.5 2.9 2.5h.2c1.6 0 3-1.3 3-3-.3-1.2-.9-2-2.5-2.7zM101 51h1v-9h-1v9zm10-8.1h2.4V51h1.1v-8.1h2.4V42h-6v.9zm17 3.1l-2.6-4H124l3.4 5.1V51h1.2v-3.9L132 42h-1.4l-2.6 4zm8.5 2.8l-.3-.1c-.2-.1-.5-.2-.5-.5s.3-.5.6-.5.5.1.6.4l.4-.2c-.2-.4-.6-.6-1-.6-.6 0-1.1.4-1.1 1 0 .5.4.8.8 1l.3.1c.3.1.7.3.7.7 0 .4-.3.7-.7.7-.4 0-.7-.3-.7-.7l-.5.1c.1.6.6 1.1 1.2 1.1.7 0 1.2-.5 1.2-1.2-.1-.8-.5-1.1-1-1.3zm4.5-1.7l-1.3 3-1.3-3-.8 3.9h.5l.4-2.5 1.1 2.6 1.1-2.6.4 2.5h.5l-.6-3.9z" clip-rule="evenodd" fill="#FFFFFF"></path></svg>