<svg viewBox="0 0 90 58" xmlns="http://www.w3.org/2000/svg" xmlns:xlink="http://www.w3.org/1999/xlink" width="96"  height="62" ><defs><path id="a" d="M0 .304h89.045V58H0z"></path><path id="a" d="M0 .304h89.045V58H0z"></path></defs><g fill="none" fill-rule="evenodd"><g transform="translate(0 -.304)" fill="none"><mask id="b" fill="#FFFFFF"><use xlink:href="#a" fill="#FFFFFF"></use></mask><path d="M3.418 46.984c-.54-.244-1.246-.426-1.87-1.408-.701-1.106-.454-1.914-.23-3.443.24-1.62.213-2.277-.243-4.079-.373-1.48-.585-1.989-.816-3.705C.116 33.29.01 32.4.002 31.8c-.014-.89.053-1.725.15-2.964.055-.688.222-1.665.817-3.453.195-.587.724-1.973 1.048-2.63.543-1.1 1.124-1.646.854-3.585-.104-.746-.388-1.145-.505-2.146-.132-1.134-.056-1.667.156-2.369.213-.698.467-1.133.9-1.67.253-.31.728-.916 1.825-1.109 0 0 .719-.206 1.308-.044 1.48.13 1.262 1.436 3.47.066 1.06-.59 2.875-1.063 4.707.221.782.46 1.436 2.02.595-.554-.393-1.529-.793-2.29-1.328-4.698-.627-2.277-.12-4.6 1.737-5.857 1.34-1.176 4.059-.652 7.212-.06 2.768.518 3.422-.353 5.306-.273 1.059.045 1.958.05 2.83.254 1.204.283 1.882.635 2.547.997 1.888 1.03 1.779.012 4.416.36.843.11 1.175-.014 2.029.232.989.285 1.6.611 2.474 1.12 2.445 1.423 2.447 1.742 6.52 1.564.753-.033 2.097.548 2.823 1.023.808.528 2.772 1.67 4.507 1.781 2.21.14 4.103-.14 6.827 1.795 1.989 1.77 4.462 1.686 6.67 2.884.709.384 2.404 1.68 3.238 3.017.178.287.904.758 2.719 1.058 1.63.27 3.34 2.205 4.25 3.556 1.174 1.081.487.348 2.094 1.468.777.541 1.166.811 1.926 1.38.989.74.358.2 1.54 1.132.216.17.504.494 1.293 1.204 1.025.788 1.474 1.49 1.819 2.177.582 1.157.116 1.972-.421 2.93-.396.706-1.032 1.841-2.044 2.797-1.126 1.061-1.036 1.091-2.062 1.705-2.332 1.392-4.074.921-5.061 2.583-1.458 2.454-2.63 3.247-3.73 3.762-2.218 1.038-3.706 1.002-5.113 2.105-1.147.9-2.96 2.057-4.185 2.603-2.36 1.05-2.65.433-4.263 1.44-.548.342-.2.145-1.578 1.28-.795.653-2.06 1.208-2.69 1.295-.823.115-1.731.206-2.5.411-1.936.518-2.147 1.198-4.282 1.608-2.491.478-3.52.242-5.898 1.375-.62.295-1.298.591-2.205 1.084-.747.406-3.045.962-4.82 1.05-.772.04-1.498-.47-3.37.421-2.414 1.151-2.448 1.034-4.362 1.421-.697.142-1.48.064-2.208.061-1.392-.004-2.841-.485-4.33-.439-1.524.048-1.17-.046-2.438.098l-.9.147-1.325.295c0 .053-.482.075-.482.128-1.216.266-1.942.157-2.654.018-1.195-.237-2.52-.95-3.001-1.605-.79-.942-.898-1.85-.805-3.087.446-2.156 1.36-5.225 1.784-6.32 0 0 .7-1.592-.994-.7-1.718.633-3.061-.474-4.103-.12-1.028.517-1.663.99-2.95 1.177-1.333.193-2.368-.216-2.368-.216" fill="#FEFEFE" mask="url(#b)"></path></g><path d="M22.557 55.113c1.541-.174 1.91-.068 3.29.113 1.283.167 2.511.415 3.784.27a9.78 9.78 0 0 0 1.89-.393c1.783-.57 2.611-1.345 4.76-1.636 1.78-.242 1.78.055 3.34-.02 1.634-.077 2.543-.774 3.232-1.147.834-.454 1.052-.491 1.611-.79 2.02-1.08 4.392-.945 6.662-1.5 1.595-.39 2.22-1.141 4.002-1.62.708-.188 1.484-.175 2.242-.281.58-.081 1.606-.596 2.18-1.126.983-.91.875-.947 1.64-1.378 1.275-.721 2.72-.698 4.002-1.294 1.194-.553 2.42-1.024 3.365-1.977 1.377-1.39 3.55-1.778 5.336-2.427 1.052-.383 2.434-1.06 3.594-3.063 1.137-1.963 2.143-2.244 4.167-2.853 1.345-.405 1.925-.692 2.961-1.67.933-.88 1.27-1.445 1.688-2.061.48-.707 1.423-1.868.421-2.756-.44-.39-.885-1.116-1.829-1.842-.727-.654-1.326-1.02-1.525-1.176-1.09-.858-.172-.18-1.218-.841-.738-.467-.947-.843-1.707-1.271-1.363-.77-1.504-.996-2.593-2.304-.945-1.742-2.427-1.984-3.913-2.316-1.435-.32-2.452-1.465-2.695-1.858-.763-1.235-1.997-1.847-2.65-2.202-2.034-1.102-4.377-.926-6.208-2.555-2.76-1.96-3.487-1.597-6.388-1.686-1.6-.05-3.7-1.071-4.384-1.64a5.366 5.366 0 0 0-1.83-.975c-2.045-.63-3.446.453-6.306-.94-.835-.406-1.589-.965-2.41-1.438-.512-.294-.902-.436-1.702-.61-1.514-.326-2.83-.117-4.664.039-.86.074-1.37-.383-2.16-.81a8.197 8.197 0 0 0-2.46-.858c-1.244-.231-2.654-.068-4.098.22-2.86.576-5.484-.872-8.242-.614-.467.044-1.393.63-1.703 1.286-.416.88-.416 1.39-.355 2.26.084 1.182.224 1.266.455 2.035.501 1.669.755 2.577 1.154 3.702.464 1.307.448 2.9-.653 3.407-.532.245-1.414.25-1.913-.13-.775-.591-1.2-1.422-2.075-1.594-1.168-.231-2.568.967-3.809 1.294-1.244.327-1.402-.35-2.266-.75-.575-.266-1.128.122-1.45.3-.582.325-.723.995-.858 1.708-.108.57-.155 1.102-.014 1.725.205.904.506 1.447.53 2.077.055 1.584-.199 2.746-.853 3.58-.416.533-.96 2-1.132 2.543-.574 1.815-.505 1.499-.782 3.184-.142.86-.119 1.825-.195 2.63-.014.149.096 1.98.184 2.525.22 1.354.473 2.225.758 3.366.41 1.648.587 2.672.546 3.947-.04 1.305-.865 2.532-.083 3.453.487.573 1.753 1.089 2.783.635 1.044-.462 1.806-1.007 2.627-1.12 1.511-.207 2.483.44 3.138.363.58-.068 1.596-.65 2.075-.69.382-.031 1.21-.068 1.5.15.46.344.744.726.667 1.918 0 .018-.279 1.27-.282 1.28-.476 1.569-.99 3.024-1.236 4.1-.257 1.125-1.49 3.557 1.013 4.554 1.054.419 2.168.338 3.55-.017.7-.181.99-.21 1.643-.32 0-.048.98-.03.98-.078l.871-.037z" fill="#020303"></path><path d="M69.933 17.368c.677.443 1.456 1.584 2.11 2.528.798.726.871 1.148 2.85 1.5-.382-.068 1.782.678 2.108.86.851.472 1.068.763 1.823 1.623.779.889 1.09 1.126 2.664 2.179.611.409.72.555 1.885 1.384.48.34 1.088.893 1.304 1.347.551 1.153-.218 1.564-1.415 2.197-1.967 1.043-3.596.746-5.367 2.554-1.478 1.509-3.093 3.348-4.187 3.678-.476.145-1.738.54-2.6 1.076-.854.53-1.095.514-1.86 1.196-.909.81-1.417 1.39-3.088 1.968-1.03.355-2.247.52-3.327.844-.798.24-1.437.573-2.149.976-1.085.614-2.391 2.054-4.185 2.387-3.554.662-2.61.589-5.144 1.736-.629.285-1.928.595-2.839.595-1.524 0-2.713.252-4.055.966-.976.52-1.971 1.475-3.889 1.73-2.368.314-2.5.017-5.441.646-.892.192-2.018.842-2.869 1.149-.955.346-3.206.39-4.796.244-1.553-.142-2.694-.145-4.938.262-1.738.314-2.674.35-4.361.307-.38-.01-.666-.278-.913-.677-.293-.476-.328-.893-.263-1.418.135-1.102.111-1.156.372-2.177.079-.31.469-2.332.538-2.642.435-1.946.569-3.908-.963-4.793-.48-.276-1.67-.455-2.532-.302-2.596.46-2.051.898-3.71.31-.279-.098-.984-.225-1.394-.208-.831.033-2.014.615-3.06.779-.735.116-.927-.703-.908-1.288.03-.907.125-1.778.084-2.793-.106-2.656-.57-2.798-.89-4.4-.291-1.451-.207-3.917-.277-3.847.073-2.033.995-4.224 1.519-4.982.549-.793.667-1.117 1.084-2.088.442-1.026.383-1.934.158-3.087-.005-.027-.272-.88-.175-.88a2.866 2.866 0 0 1 .228-1.508c.28-.598.498-.887.945-1.081.277-.12.568-.265.862-.285.965-.068 1.159.55 2.963-.206.933-.392 1.861.133 2.319.3 1.251.456 1.033.456 1.829.482.757.025 1.486-.167 2.189-.593.404-.247.709-.382.949-.73.205-.3.478-1.13.551-1.557.09-.522.235-.85.09-2.083-.4-1.525-.545-1.852-.818-2.818-.221-.786-.489-1.54-.602-2.261a101.49 101.49 0 0 1-.032-.876c-.098-.721.392-1.24 1.016-1.243 2.235-.02 4.331.618 6.693.603 1.948-.013 2.776-.411 5.07.423.799.29 1.271.944 2.522 1.296 2.377.67 4.267-.933 6.302.025 1.691.795 1.335.315 2.925 1.329.741.472 2.12 1.27 4.098 1.562 1.369.202 3.541-.364 5.779 1.26 1.259.912 2.409 1.28 4.019 1.447 1.896.196 2.08-.071 3.574 1.01 1.1.798.797.62 1.906 1.446.502.374.897.755 1.623 1.08.415.188 2.009.41 1.96.408 1.417.072 1.816-.044 2.941.356-.024-.026 1.453.943 1.195.775" fill="#FEFEFE"></path><path d="M20.982 30.831v3.006h11.306l1.125-1.053v-3.608h-1.67l.007-.914 6.23-3.573.524.537c-1.395.98-2.477 1.896-3.312 3.348-1.223 2.036-1.67 4.863-.943 7.114.472 1.526 1.052 2.433 2.069 3.494.98 1.01 1.815 1.59 3.413 2.352 1.307.654 4.393 1.59 6.789 1.845 2.324.181 5.228.145 7.152-.11 2.106-.216 4.284-.98 5.592-1.517 1.052-.509 2.214-.98 3.107-1.677 2.25-1.62 4.625-4.06 4.662-7.11h-4.198c-1.321 4.684-14.028 6.826-19.111 3.203-3.703-2.911-2.651-5.49-1.09-6.688l.473.51-.791.834.058 3.013h10.703l1.379-1.306v-3.268h-.82l-3.703-3.995c7.115-1.524 10.637 1.598 12.714 5.011h2.788l1.409-1.38v-7.915l-2.97-.007-1.78 1.104c-6.316-2.794-11-2.476-15.901-.85l-.8-.812 4.525-2.701 2.73-.015 1.337-1.27.007-2.694H43.07l-1.162 1.175v1.838L31.67 22.605v-4.51l1.655-1.67V13.71H22.594l-1.466 1.713v2.15h1.757v11.604h-.538s-1.437 1.627-1.365 1.655" fill="#020303"></path><path fill="#E11D38" d="M22.884 14.377h9.802v1.757l-1.67.015v7.61l13.361-7.625h-1.176v-1.757l10.107-.014v1.757l-2.25.03-6.844 4.036 9.21 9.948.32.007v2.027H43.58V30.12l1.415.014-6.309-6.724-7.596 4.357v2.367h1.597v2.02h-9.802v-2.02h1.67v-14h-1.67z"></path><path d="M66.263 33.62h-2.687c-1.082 1.778-2.57 3.195-5.983 4.211-6.608 1.96-12.961.98-15.75-2.506-2.33-2.686-1.241-5.046.247-6.338l-2.934-3.166c-2.33 1.59-3.13 3.078-3.63 4.531-.4 1.197-.951 3.63.175 5.918 1.379 2.36 3.593 3.74 5.082 4.284 2.433 1.016 6.39 1.96 10.856 1.78 3.195-.075 5.99-.655 8.677-1.998 1.56-.835 1.88-1.016 3.442-2.469 1.169-1.343 2.113-2.178 2.505-4.248M46.701 21.785c1.996-.619 7.624-2.543 15.54.942l1.67-1.088h2.337l-.029 7.029-2.599.029c-2.65-3.986-8.677-5.389-14.305-4.044l-2.614-2.868z" fill="#E11D38"></path></g></svg>