<svg xmlns:xlink="http://www.w3.org/1999/xlink" id="Layer_1" data-name="Layer 1" xmlns="http://www.w3.org/2000/svg" viewBox="0 0 273.6 139.08" width="274"  height="141" > <g id="White_Park_Logo" data-name="White Park Logo" fill="#FFFFFF"> <g fill="#FFFFFF"> <g fill="#FFFFFF"> <path d="M46.12,108.86l7.45,13h1v-1.47H54L46.12,106ZM37.7,121.22,46.12,104l-4.93,1.86L34,121.29l2.19,11V121.37l1.56-.21ZM24.93,132.6l8-44.12,22.67,3.59h0L65,132.71H50.08c0-2.19.1-9.28.1-10A4.57,4.57,0,0,0,45.92,119a4.39,4.39,0,0,0-4.44,2.79v11M52.3,80.36c0-4.86-2.61-8.47-7.24-9.41-4-.8-7.8,2.41-7.8,7.28a11.18,11.18,0,0,0,2.46,7.12L49.45,87A9.35,9.35,0,0,0,52.3,80.36ZM38.77,43.65l9.87,2.29a3.83,3.83,0,0,0,0-2,5.49,5.49,0,0,0-4-4c-4.3-1.1-6,1.37-6.07,1.66a14.88,14.88,0,0,0,.19,2Zm-.18,1.46v3l10.08,2.09,0-2.87L38.59,45.12Zm-17,87.56h-.94m-8.09,0H5.25V25.27H32.43l-4.7,14.55,8.3-10,1.5-10.08H86.18v117.7H0V19.77H34.21l-1.5,4.64H4.39V133.52H69.05l12.59-.13V24.47H48.77l4.69,11.24L35.85,31.87,28.1,40.69l2.26,1.61,5.91-7.57,15,3.29.1.86V39l.07-.8-.13,13.48h0v.09L35.93,48.09h0l-1,.08.16.65.33.85.12.36.25.61,15.5,3.29h0a11.34,11.34,0,0,1,3.94,4.88c1,2.86,3.6,8.16,4,8.3s.33.17.34.21L31.87,61.73a15,15,0,0,0,1.29-2.19c.43-1,.65-5.16,1-5.92a31.66,31.66,0,0,1,1.72-2.9l-1-2.59h1L36,36.53l-5.48,6.91-.31,10.31-2.09,2.5L30.41,58s-3.29,3.24-3.66,4.52-1.5,6.36-1.93,6.89-3.55,4.74-3.55,4.74l1,1.51a5.25,5.25,0,0,1,1.72.1c.86.22,1.61,1.51,1.61,1.51l-.65,14.08,6.23-7.08,2.19.14V67.25L55,71.2l-.11,16.56,4.38,1L57.9,90h0L31.59,85.38,21.27,95.85l2.86,1.43M18,132.67h-2" transform="translate(0 -1.26)" fill="#FFFFFF"></path> <path d="M44.35,80c0-.36.2-.65.43-.65s.44.29.44.65-.2.65-.44.65S44.35,80.35,44.35,80Z" transform="translate(0 -1.26)" fill="#FFFFFF" stroke="#FFFFFF" stroke-miterlimit="3.86" stroke-width="0.24px"></path> <polygon points="44.49 78.44 44.49 73.75 44.26 73.44 44.72 72.06 45.18 73.45 44.95 73.76 44.95 78.44 44.49 78.44 44.49 78.44 44.49 78.44" fill="#FFFFFF" stroke="#FFFFFF" stroke-miterlimit="3.86" stroke-width="0.24px"></polygon> <polygon points="44.98 78.45 47.78 80.08 48.14 80.02 48.98 81.02 47.68 80.8 47.55 80.46 44.74 78.85 44.98 78.45 44.98 78.45 44.98 78.45" fill="#FFFFFF" stroke="#FFFFFF" stroke-miterlimit="3.86" stroke-width="0.24px"></polygon> <path d="M51,83.26a9.1,9.1,0,0,1-2.89,4.25H46.4a8,8,0,0,0,4.21-5.21c1.3-4.53-.63-8.12-4.53-10.34l.55.25c4.19,2.19,6.21,6.57,4.38,11.05Z" transform="translate(0 -1.26)" fill="#FFFFFF" stroke="#FFFFFF" stroke-miterlimit="3.86" stroke-width="0.21px" fill-rule="evenodd"></path> <polygon points="35.93 28.61 53.01 34.29 40.4 0 35.93 28.61 35.93 28.61 35.93 28.61" fill="#FFFFFF"></polygon> </g> <g fill="#FFFFFF"> <path d="M104.89,104.76c0,5.48,0,9.92-.29,12.29-.22,1.65-.5,2.9-1.64,3.13a9.77,9.77,0,0,1-1.7.22c-.34,0-.45.17-.45.34,0,.34.29.46.91.46,1.7,0,5.27-.18,5.48-.18s3.86.18,7,.18c.62,0,.91-.18.91-.46s-.11-.34-.45-.34c-.85,0-1.71-.11-2.55-.22-1.7-.23-2-1.48-2.2-3.13-.28-2.37-.28-6.86-.28-12.29V81.46c0-.56.12-.95.46-1.1a6.91,6.91,0,0,1,2.43-.34,9.82,9.82,0,0,1,7.76,2.84,12,12,0,0,1,3.18,8.77c0,5.22-4.31,9.24-9.81,9.24-1.18,0-1.52,0-1.52.51,0,.29.34.4.62.4a9.48,9.48,0,0,0,1.19,0c8,0,13.94-5.48,13.94-13.49A9.9,9.9,0,0,0,125,81.6c-.91-.85-3.46-3.29-10.54-3.29-2.61,0-5.9.17-7.15.17-.45,0-3.85-.17-6.4-.17-.62,0-.91.11-.91.45s.23.35.46.35a11.14,11.14,0,0,1,1.92.17c1.87.39,2.32,1.3,2.44,3.29S105,86,105,94.81v10Z" transform="translate(0 -1.26)" fill="#FFFFFF"></path> <path d="M133.71,115c-1,2.83-2.19,5-4.76,5.33-.46,0-1.25.11-1.64.11s-.52.12-.52.34.34.46,1.1.46c2.65,0,5.78-.18,6.4-.18s3.06.18,4.38.18c.52,0,.86-.12.86-.46s-.18-.34-.57-.34h-.57c-1,0-2.19-.51-2.19-1.65A11.71,11.71,0,0,1,137,115l3.4-10a.6.6,0,0,1,.56-.46h12.19a.51.51,0,0,1,.51.34L159,118.72c.34.91,0,1.42-.34,1.53s-.4.17-.4.4.62.34,1.71.39c3.9.12,8,.12,8.89.12.62,0,1.1-.12,1.1-.46s-.23-.34-.57-.34a7.31,7.31,0,0,1-2.27-.34c-1.18-.34-2.83-1.24-4.87-6.29-3.46-8.61-12.36-32-13.16-34.17-.67-1.75-.9-2-1.24-2s-.57.34-1.25,2.2l-12.87,35.2Zm7.93-12.53c-.16,0-.28-.12-.16-.39l5-15.34c.28-.85.55-.85.84,0L152.7,102c.06.22.06.39-.23.39Z" transform="translate(0 -1.26)" fill="#FFFFFF" fill-rule="evenodd"></path> <path d="M177.79,104.76c0,5.48,0,9.92-.29,12.29-.23,1.65-.5,2.9-1.64,3.13a9.77,9.77,0,0,1-1.7.22c-.34,0-.45.17-.45.34,0,.34.28.46.91.46,1.7,0,5.26-.18,5.31-.18.29,0,3.86.18,7,.18.62,0,.9-.18.9-.46s-.12-.34-.46-.34c-.5,0-1.75-.11-2.55-.22-1.7-.23-2-1.48-2.19-3.13-.29-2.37-.29-6.86-.29-12.29v-1.38c0-.29.11-.46.4-.46l7,.12a.87.87,0,0,1,.73.34c1.1,1.47,3.81,5.27,6.18,8.38,3.24,4.25,5.22,7,7.67,8.33,1.48.8,2.9,1.09,6.08,1.09h4c1,0,1.35-.12,1.35-.46,0-.16-.23-.34-.51-.34a13.37,13.37,0,0,1-2.19-.16c-1.43-.23-3.86-.85-6.92-4.09-3.29-3.5-7.14-8.55-11.79-14.5,5.1-4.71,6.86-8.91,6.86-13.09a9.86,9.86,0,0,0-3.91-7.67c-3-2.19-6.81-2.5-10.37-2.5-1.76,0-6.07.16-6.69.16-.29,0-3.85-.16-6.4-.16-.63,0-.91.11-.91.45s.23.35.46.35a11.11,11.11,0,0,1,1.91.16c1.88.4,2.33,1.31,2.45,3.29s.11,3.4.11,12.24v9.9Zm4.53-23.59a.67.67,0,0,1,.45-.66,16.8,16.8,0,0,1,3.81-.36c6.06,0,9.79,4.26,9.79,11.35,0,4.3-1.47,7.36-3.45,8.76a7.25,7.25,0,0,1-4.25,1.1,15.86,15.86,0,0,1-5.95-.9.76.76,0,0,1-.4-.68V81.17Z" transform="translate(0 -1.26)" fill="#FFFFFF" fill-rule="evenodd"></path> <path d="M220.22,104.76c0,5.48,0,9.92-.27,12.29-.23,1.65-.52,2.9-1.66,3.13a9.77,9.77,0,0,1-1.7.22c-.34,0-.45.17-.45.34,0,.34.29.46.91.46,1.7,0,5-.18,5.48-.18s3.75.18,6.52.18c.63,0,.9-.18.9-.46s-.11-.34-.45-.34c-.73,0-1.46-.11-2.19-.22-1.7-.23-2-1.48-2.19-3.13-.29-2.37-.29-6.86-.29-12.29V99.2h.29c2.72,3.34,14.73,16.32,17.28,18.42,2.44,1.93,3.86,3.17,6.86,3.46,1.3.1,2.61.14,3.91.12H256c1,0,1.25-.18,1.25-.46s-.34-.34-.74-.34a10.35,10.35,0,0,1-3.51-.74c-2.72-1.09-3.69-2-8.44-6.46-2.33-2.2-14.12-14.34-15.59-16,1.19-1.42,11-11,12.46-12.41,2.56-2.44,3.81-3.86,6.13-4.87a8,8,0,0,1,3.18-.79c.45,0,.56-.12.56-.41s-.23-.39-.85-.39c-1.42,0-5.16.16-5.48.16-1.35,0-3.11-.16-4.24-.16-.4,0-.69.11-.69.39s.23.34.52.46a1.1,1.1,0,0,1,.73,1.18c0,1-1.48,2.44-3.06,4.09-2,2.19-12.29,12.64-13.26,13.71h-.23v-3.4c0-8.84,0-10.43.11-12.24.12-2,.57-2.94,2.11-3.28a8.35,8.35,0,0,1,1.41-.17c.23,0,.45-.12.45-.35s-.28-.45-.9-.45c-1.7,0-5,.17-5.48.17s-3.68-.17-6.23-.17c-.63,0-.91.11-.91.45s.23.35.46.35a10.78,10.78,0,0,1,1.88.18c1.87.39,2.33,1.3,2.44,3.28s.11,3.4.11,12.25v10Z" transform="translate(0 -1.26)" fill="#FFFFFF"></path> <path d="M102.56,126.78h-1.29v7.39a4.07,4.07,0,0,0,.76,2.72,4.28,4.28,0,0,0,6.66,0,4.07,4.07,0,0,0,.76-2.72v-7.39h-1.3v7.05a3.94,3.94,0,0,1-.37,2.19,3,3,0,0,1-4.84,0,4,4,0,0,1-.38-2.19v-7.05Z" transform="translate(0 -1.26)" fill="#FFFFFF" stroke="#FFFFFF" stroke-miterlimit="3.86"></path> <polygon points="120.34 137 121.63 137 121.63 128.15 130.56 137.51 130.56 125.52 129.27 125.52 129.27 134.42 120.34 125.04 120.34 137 120.34 137 120.34 137" fill="#FFFFFF" stroke="#FFFFFF" stroke-miterlimit="3.86"></polygon> <polygon points="142.71 125.52 141.41 125.52 141.41 137 142.71 137 142.71 125.52 142.71 125.52 142.71 125.52" fill="#FFFFFF" stroke="#FFFFFF" stroke-miterlimit="3.86"></polygon> <polygon points="153.59 125.52 152.18 125.52 156.82 137.68 161.48 125.52 160.09 125.52 156.84 134.27 153.59 125.52 153.59 125.52 153.59 125.52" fill="#FFFFFF" stroke="#FFFFFF" stroke-miterlimit="3.86"></polygon> <polygon points="176.89 126.71 176.89 125.52 170.95 125.52 170.95 137 176.89 137 176.89 135.81 172.24 135.81 172.24 131.32 176.77 131.32 176.77 130.14 172.24 130.14 172.24 126.71 176.89 126.71 176.89 126.71 176.89 126.71" fill="#FFFFFF" stroke="#FFFFFF" stroke-miterlimit="3.86"></polygon> <path d="M190.1,133.13A3,3,0,0,0,193,130V130a3.1,3.1,0,0,0-1.27-2.54,4.65,4.65,0,0,0-2.75-.63h-1.87v11.49h1.3v-5h.32l3.46,5h1.57Zm-1.69-1V128h.73c1.69,0,2.59.68,2.59,2s-.88,2.19-2.54,2.19Z" transform="translate(0 -1.26)" fill="#FFFFFF" stroke="#FFFFFF" stroke-miterlimit="3.86" fill-rule="evenodd"></path> <path d="M209.75,128.38a3.3,3.3,0,0,0-3-1.78,3,3,0,0,0-3.21,2.84s0,.06,0,.1c0,1.29.67,2.1,2.33,2.84l.35.15.34.16.34.17a6.27,6.27,0,0,1,1,.51,1.84,1.84,0,0,1,.95,1.65,2.26,2.26,0,0,1-2.27,2.24h-.08a2.29,2.29,0,0,1-2.3-2.09l-1.24.34a3.48,3.48,0,0,0,3.56,3,3.57,3.57,0,0,0,3.62-3.49v-.06c0-1.43-.77-2.35-2.61-3.15l-.36-.16-.36-.16-.35-.16a6.35,6.35,0,0,1-.91-.53,1.45,1.45,0,0,1-.73-1.22,1.81,1.81,0,0,1,1.82-1.78h.08a2.07,2.07,0,0,1,2,1.24l1-.66Z" transform="translate(0 -1.26)" fill="#FFFFFF" stroke="#FFFFFF" stroke-miterlimit="3.86"></path> <polygon points="221.68 125.52 220.4 125.52 220.4 137 221.68 137 221.68 125.52 221.68 125.52 221.68 125.52" fill="#FFFFFF" stroke="#FFFFFF" stroke-miterlimit="3.86"></polygon> <polygon points="235.31 126.71 238.1 126.71 238.1 125.52 231.25 125.52 231.25 126.71 234.03 126.71 234.03 137 235.31 137 235.31 126.71 235.31 126.71 235.31 126.71" fill="#FFFFFF" stroke="#FFFFFF" stroke-miterlimit="3.86"></polygon> <polygon points="250.77 132.07 250.77 137 252.07 137 252.07 132.07 255.88 125.52 254.39 125.52 251.42 130.65 248.49 125.52 247.03 125.52 250.77 132.07 250.77 132.07 250.77 132.07" fill="#FFFFFF" stroke="#FFFFFF" stroke-miterlimit="3.86"></polygon> <path d="M265.6,133.36a1.1,1.1,0,0,0-1-.59,1,1,0,0,0-1,.89c0,.48.48.73.88.88l.44.18c.88.34,1.54.83,1.54,1.87a1.9,1.9,0,0,1-1.88,1.93h-.1a1.94,1.94,0,0,1-1.93-1.73l.78-.17a1.18,1.18,0,1,0,2.35.22.81.81,0,0,0,0-.22c0-.67-.53-1-1.09-1.19l-.43-.18c-.71-.3-1.35-.71-1.35-1.57a1.71,1.71,0,0,1,1.78-1.62h.05a1.77,1.77,0,0,1,1.6.94l-.62.37Z" transform="translate(0 -1.26)" fill="#FFFFFF"></path> <polygon points="268.33 133.03 268.31 133.03 267.58 137.13 266.78 137.13 268.06 130.65 270.19 135.55 272.33 130.65 273.6 137.13 272.8 137.13 272.08 133.03 272.06 133.03 270.19 137.26 268.33 133.03 268.33 133.03" fill="#FFFFFF"></polygon> </g> </g> </g> </svg>